<mxfile host="app.diagrams.net" modified="2024-05-13T15:25:02.039Z" agent="Mozilla/5.0 (Windows NT 10.0; Win64; x64) AppleWebKit/537.36 (KHTML, like Gecko) Chrome/124.0.0.0 Safari/537.36" etag="UiMTl3CTJUBydphyQfpt" version="24.3.1" type="device">
  <diagram name="Page-1" id="aHuQ-jv68nUoPqlYPjo5">
    <mxGraphModel dx="11160" dy="5253" grid="0" gridSize="10" guides="1" tooltips="1" connect="1" arrows="1" fold="1" page="0" pageScale="1" pageWidth="850" pageHeight="1100" math="0" shadow="0">
      <root>
        <mxCell id="0" />
        <mxCell id="1" parent="0" />
      </root>
    </mxGraphModel>
  </diagram>
</mxfile>
